<svg width="28" height="28" viewBox="0 0 28 28" fill="none" xmlns="http://www.w3.org/2000/svg">
<g id="iconamoon:notification">
<g id="Group">
<path id="Vector" d="M6.99984 22.1665V11.6665C6.99984 9.80999 7.73734 8.02951 9.05009 6.71676C10.3628 5.404 12.1433 4.6665 13.9998 4.6665C15.8564 4.6665 17.6368 5.404 18.9496 6.71676C20.2623 8.02951 20.9998 9.80999 20.9998 11.6665V22.1665M6.99984 22.1665H20.9998M6.99984 22.1665H4.6665M20.9998 22.1665H23.3332M12.8332 25.6665H15.1665" stroke="#454545" stroke-width="2" stroke-linecap="round" stroke-linejoin="round"/>
<path id="Vector_2" d="M13.9997 4.66659C14.644 4.66659 15.1663 4.14425 15.1663 3.49992C15.1663 2.85559 14.644 2.33325 13.9997 2.33325C13.3553 2.33325 12.833 2.85559 12.833 3.49992C12.833 4.14425 13.3553 4.66659 13.9997 4.66659Z" stroke="#454545" stroke-width="2"/>
</g>
</g>
</svg>
