<svg width="20" height="20" viewBox="0 0 20 20" fill="none" xmlns="http://www.w3.org/2000/svg">
<path d="M2.50016 11.2502L1.87516 10.0002H6.25016L5.75016 8.75016H1.66683L1.04183 7.50016H7.54183L7.04183 6.25016H0.925163L0.208496 5.00016H3.3335C3.3335 4.55814 3.50909 4.13421 3.82165 3.82165C4.13421 3.50909 4.55814 3.3335 5.00016 3.3335H15.0002V6.66683H17.5002L20.0002 10.0002V14.1668H18.3335C18.3335 14.8299 18.0701 15.4658 17.6013 15.9346C17.1324 16.4034 16.4965 16.6668 15.8335 16.6668C15.1705 16.6668 14.5346 16.4034 14.0657 15.9346C13.5969 15.4658 13.3335 14.8299 13.3335 14.1668H10.0002C10.0002 14.8299 9.73677 15.4658 9.26793 15.9346C8.79909 16.4034 8.1632 16.6668 7.50016 16.6668C6.83712 16.6668 6.20124 16.4034 5.7324 15.9346C5.26356 15.4658 5.00016 14.8299 5.00016 14.1668H3.3335V11.2502H2.50016ZM15.8335 15.4168C16.165 15.4168 16.483 15.2851 16.7174 15.0507C16.9518 14.8163 17.0835 14.4984 17.0835 14.1668C17.0835 13.8353 16.9518 13.5174 16.7174 13.2829C16.483 13.0485 16.165 12.9168 15.8335 12.9168C15.502 12.9168 15.184 13.0485 14.9496 13.2829C14.7152 13.5174 14.5835 13.8353 14.5835 14.1668C14.5835 14.4984 14.7152 14.8163 14.9496 15.0507C15.184 15.2851 15.502 15.4168 15.8335 15.4168ZM17.0835 7.91683H15.0002V10.0002H18.7168L17.0835 7.91683ZM7.50016 15.4168C7.83168 15.4168 8.14963 15.2851 8.38405 15.0507C8.61847 14.8163 8.75016 14.4984 8.75016 14.1668C8.75016 13.8353 8.61847 13.5174 8.38405 13.2829C8.14963 13.0485 7.83168 12.9168 7.50016 12.9168C7.16864 12.9168 6.8507 13.0485 6.61628 13.2829C6.38186 13.5174 6.25016 13.8353 6.25016 14.1668C6.25016 14.4984 6.38186 14.8163 6.61628 15.0507C6.8507 15.2851 7.16864 15.4168 7.50016 15.4168Z" fill="#454545"/>
</svg>
