<svg width="18" height="18" viewBox="0 0 18 18" fill="none" xmlns="http://www.w3.org/2000/svg">
<g id="fluent:ios-arrow-24-filled">
<path id="Vector" d="M8.45499 2.76544C8.38732 2.69383 8.33443 2.6096 8.29932 2.51756C8.2642 2.42551 8.24757 2.32745 8.25035 2.22897C8.25314 2.1305 8.27529 2.03353 8.31555 1.94362C8.35581 1.8537 8.41338 1.7726 8.48499 1.70494C8.55659 1.63727 8.64082 1.58438 8.73287 1.54926C8.82491 1.51415 8.92297 1.49751 9.02145 1.5003C9.11993 1.50309 9.21689 1.52524 9.30681 1.5655C9.39672 1.60576 9.47782 1.66333 9.54549 1.73494L15.9205 8.48494C16.0521 8.62419 16.1255 8.80855 16.1255 9.00019C16.1255 9.19182 16.0521 9.37619 15.9205 9.51544L9.54549 16.2662C9.47827 16.3394 9.39719 16.3984 9.30694 16.44C9.21669 16.4816 9.11909 16.5048 9.01979 16.5083C8.9205 16.5119 8.82149 16.4956 8.72852 16.4606C8.63556 16.4255 8.55048 16.3723 8.47824 16.3041C8.406 16.2359 8.34803 16.154 8.30771 16.0632C8.26738 15.9724 8.24551 15.8745 8.24334 15.7751C8.24118 15.6758 8.25877 15.577 8.29511 15.4845C8.33144 15.3921 8.38579 15.3077 8.45499 15.2364L14.344 9.00019L8.45499 2.76544Z" fill="#D10B05"/>
</g>
</svg>
