<svg width="18" height="18" viewBox="0 0 18 18" fill="none" xmlns="http://www.w3.org/2000/svg">
<g id="fluent:ios-arrow-24-filled">
<path id="Vector" d="M9.54501 15.2346C9.61268 15.3062 9.66557 15.3904 9.70068 15.4824C9.7358 15.5745 9.75243 15.6725 9.74965 15.771C9.74686 15.8695 9.72471 15.9665 9.68445 16.0564C9.64419 16.1463 9.58662 16.2274 9.51501 16.2951C9.44341 16.3627 9.35918 16.4156 9.26713 16.4507C9.17509 16.4858 9.07703 16.5025 8.97855 16.4997C8.88007 16.4969 8.78311 16.4748 8.69319 16.4345C8.60328 16.3942 8.52218 16.3367 8.45451 16.2651L2.07951 9.51506C1.94786 9.37581 1.8745 9.19145 1.8745 8.99981C1.8745 8.80818 1.94786 8.62381 2.07951 8.48456L8.45451 1.73381C8.52173 1.66064 8.60281 1.60155 8.69306 1.55999C8.78331 1.51842 8.88091 1.4952 8.98021 1.49167C9.0795 1.48814 9.17851 1.50438 9.27148 1.53944C9.36444 1.5745 9.44952 1.62768 9.52176 1.69589C9.594 1.76411 9.65197 1.846 9.69229 1.93681C9.73262 2.02761 9.75449 2.12553 9.75666 2.22486C9.75882 2.3242 9.74123 2.42297 9.70489 2.51545C9.66856 2.60793 9.61421 2.69226 9.54501 2.76356L3.65601 8.99981L9.54501 15.2346Z" fill="#D10B05"/>
</g>
</svg>
