<svg width="115" height="20" viewBox="0 0 115 20" fill="none" xmlns="http://www.w3.org/2000/svg">
<path d="M33.9999 14.3916L37.4583 16.4833C38.0916 16.8666 38.8666 16.3 38.6999 15.5833L37.7833 11.65L40.8416 8.99997C41.3999 8.51663 41.0999 7.59997 40.3666 7.54163L36.3416 7.19997L34.7666 3.4833C34.4833 2.8083 33.5166 2.8083 33.2333 3.4833L31.6583 7.19163L27.6333 7.5333C26.8999 7.59163 26.5999 8.5083 27.1583 8.99163L30.2166 11.6416L29.2999 15.575C29.1333 16.2916 29.9083 16.8583 30.5416 16.475L33.9999 14.3916Z" fill="#FA4742"/>
<path d="M57.9999 14.3916L61.4583 16.4833C62.0916 16.8666 62.8666 16.3 62.6999 15.5833L61.7833 11.65L64.8416 8.99997C65.3999 8.51663 65.0999 7.59997 64.3666 7.54163L60.3416 7.19997L58.7666 3.4833C58.4833 2.8083 57.5166 2.8083 57.2333 3.4833L55.6583 7.19163L51.6333 7.5333C50.8999 7.59163 50.5999 8.5083 51.1583 8.99163L54.2166 11.6416L53.2999 15.575C53.1333 16.2916 53.9083 16.8583 54.5416 16.475L57.9999 14.3916Z" fill="#FA4742"/>
<path d="M81.9999 14.3916L85.4583 16.4833C86.0916 16.8666 86.8666 16.3 86.6999 15.5833L85.7833 11.65L88.8416 8.99997C89.3999 8.51663 89.0999 7.59997 88.3666 7.54163L84.3416 7.19997L82.7666 3.4833C82.4833 2.8083 81.5166 2.8083 81.2333 3.4833L79.6583 7.19163L75.6333 7.5333C74.8999 7.59163 74.5999 8.5083 75.1583 8.99163L78.2166 11.6416L77.2999 15.575C77.1333 16.2916 77.9083 16.8583 78.5416 16.475L81.9999 14.3916Z" fill="#FA4742"/>
<path d="M9.99994 14.3916L13.4583 16.4833C14.0916 16.8666 14.8666 16.3 14.6999 15.5833L13.7833 11.65L16.8416 8.99997C17.3999 8.51663 17.0999 7.59997 16.3666 7.54163L12.3416 7.19997L10.7666 3.4833C10.4833 2.8083 9.51661 2.8083 9.23327 3.4833L7.65827 7.19163L3.63327 7.5333C2.89994 7.59163 2.59994 8.5083 3.15827 8.99163L6.21661 11.6416L5.29994 15.575C5.13327 16.2916 5.90827 16.8583 6.54161 16.475L9.99994 14.3916Z" fill="#FA4742"/>
<path d="M105 14.3916L108.458 16.4833C109.092 16.8666 109.867 16.3 109.7 15.5833L108.783 11.65L111.842 8.99997C112.4 8.51663 112.1 7.59997 111.367 7.54163L107.342 7.19997L105.767 3.4833C105.483 2.8083 104.517 2.8083 104.233 3.4833L102.658 7.19163L98.6333 7.5333C97.8999 7.59163 97.5999 8.5083 98.1583 8.99163L101.217 11.6416L100.3 15.575C100.133 16.2916 100.908 16.8583 101.542 16.475L105 14.3916Z" fill="#FA4742"/>
</svg>
