<svg width="21" height="21" viewBox="0 0 21 21" fill="none" xmlns="http://www.w3.org/2000/svg">
<circle cx="10.5" cy="10.5" r="10" stroke="#D10B05"/>
<path d="M15.3501 11.6001H11.6001V15.3501C11.6001 15.549 11.5211 15.7398 11.3804 15.8804C11.2398 16.0211 11.049 16.1001 10.8501 16.1001C10.6512 16.1001 10.4604 16.0211 10.3198 15.8804C10.1791 15.7398 10.1001 15.549 10.1001 15.3501V11.6001H6.3501C6.15119 11.6001 5.96042 11.5211 5.81977 11.3804C5.67912 11.2398 5.6001 11.049 5.6001 10.8501C5.6001 10.6512 5.67912 10.4604 5.81977 10.3198C5.96042 10.1791 6.15119 10.1001 6.3501 10.1001H10.1001V6.3501C10.1001 6.15119 10.1791 5.96042 10.3198 5.81977C10.4604 5.67912 10.6512 5.6001 10.8501 5.6001C11.049 5.6001 11.2398 5.67912 11.3804 5.81977C11.5211 5.96042 11.6001 6.15119 11.6001 6.3501V10.1001H15.3501C15.549 10.1001 15.7398 10.1791 15.8804 10.3198C16.0211 10.4604 16.1001 10.6512 16.1001 10.8501C16.1001 11.049 16.0211 11.2398 15.8804 11.3804C15.7398 11.5211 15.549 11.6001 15.3501 11.6001Z" fill="#D10B05"/>
</svg>
