<svg width="569" height="189" viewBox="0 0 569 189" fill="none" xmlns="http://www.w3.org/2000/svg">
<rect width="569" height="189" fill="#D10B05"/>
<path d="M189.114 54V36.5455H191.227V44.3182H200.534V36.5455H202.648V54H200.534V46.1932H191.227V54H189.114ZM210.459 54.3068C209.629 54.3068 208.876 54.1506 208.2 53.8381C207.524 53.5199 206.987 53.0625 206.589 52.4659C206.192 51.8636 205.993 51.1364 205.993 50.2841C205.993 49.5341 206.141 48.9261 206.436 48.4602C206.732 47.9886 207.126 47.6193 207.621 47.3523C208.115 47.0852 208.661 46.8864 209.257 46.7557C209.859 46.6193 210.464 46.5114 211.072 46.4318C211.868 46.3295 212.513 46.2528 213.007 46.2017C213.507 46.1449 213.871 46.0511 214.098 45.9205C214.331 45.7898 214.447 45.5625 214.447 45.2386V45.1705C214.447 44.3295 214.217 43.6761 213.757 43.2102C213.303 42.7443 212.612 42.5114 211.686 42.5114C210.726 42.5114 209.973 42.7216 209.428 43.142C208.882 43.5625 208.499 44.0114 208.277 44.4886L206.368 43.8068C206.709 43.0114 207.163 42.392 207.732 41.9489C208.305 41.5 208.93 41.1875 209.607 41.0114C210.288 40.8295 210.959 40.7386 211.618 40.7386C212.038 40.7386 212.521 40.7898 213.067 40.892C213.618 40.9886 214.149 41.1903 214.661 41.4972C215.178 41.804 215.607 42.267 215.947 42.8864C216.288 43.5057 216.459 44.3352 216.459 45.375V54H214.447V52.2273H214.345C214.209 52.5114 213.982 52.8153 213.663 53.1392C213.345 53.4631 212.922 53.7386 212.393 53.9659C211.865 54.1932 211.22 54.3068 210.459 54.3068ZM210.766 52.5C211.561 52.5 212.232 52.3438 212.777 52.0312C213.328 51.7188 213.743 51.3153 214.021 50.821C214.305 50.3267 214.447 49.8068 214.447 49.2614V47.4205C214.362 47.5227 214.175 47.6165 213.885 47.7017C213.601 47.7812 213.271 47.8523 212.896 47.9148C212.527 47.9716 212.166 48.0227 211.814 48.0682C211.467 48.108 211.186 48.142 210.97 48.1705C210.447 48.2386 209.959 48.3494 209.504 48.5028C209.055 48.6506 208.692 48.875 208.413 49.1761C208.141 49.4716 208.004 49.875 208.004 50.3864C208.004 51.0852 208.263 51.6136 208.78 51.9716C209.303 52.3239 209.964 52.5 210.766 52.5ZM222.141 46.125V54H220.13V40.9091H222.073V42.9545H222.244C222.55 42.2898 223.016 41.7557 223.641 41.3523C224.266 40.9432 225.073 40.7386 226.062 40.7386C226.948 40.7386 227.724 40.9205 228.388 41.2841C229.053 41.642 229.57 42.1875 229.94 42.9205C230.309 43.6477 230.494 44.5682 230.494 45.6818V54H228.482V45.8182C228.482 44.7898 228.215 43.9886 227.681 43.4148C227.147 42.8352 226.414 42.5455 225.482 42.5455C224.84 42.5455 224.266 42.6847 223.761 42.9631C223.261 43.2415 222.866 43.6477 222.576 44.1818C222.286 44.7159 222.141 45.3636 222.141 46.125ZM234.996 58.9091C234.655 58.9091 234.351 58.8807 234.084 58.8239C233.817 58.7727 233.632 58.7216 233.53 58.6705L234.041 56.8977C234.53 57.0227 234.962 57.0682 235.337 57.0341C235.712 57 236.044 56.8324 236.334 56.5312C236.629 56.2358 236.899 55.7557 237.143 55.0909L237.518 54.0682L232.678 40.9091H234.859L238.473 51.3409H238.609L242.223 40.9091H244.405L238.848 55.9091C238.598 56.5852 238.288 57.1449 237.919 57.5881C237.55 58.0369 237.121 58.3693 236.632 58.5852C236.149 58.8011 235.604 58.9091 234.996 58.9091ZM250.513 54.3068C249.684 54.3068 248.931 54.1506 248.255 53.8381C247.579 53.5199 247.042 53.0625 246.644 52.4659C246.246 51.8636 246.048 51.1364 246.048 50.2841C246.048 49.5341 246.195 48.9261 246.491 48.4602C246.786 47.9886 247.181 47.6193 247.675 47.3523C248.17 47.0852 248.715 46.8864 249.312 46.7557C249.914 46.6193 250.519 46.5114 251.127 46.4318C251.923 46.3295 252.567 46.2528 253.062 46.2017C253.562 46.1449 253.925 46.0511 254.153 45.9205C254.386 45.7898 254.502 45.5625 254.502 45.2386V45.1705C254.502 44.3295 254.272 43.6761 253.812 43.2102C253.357 42.7443 252.667 42.5114 251.741 42.5114C250.781 42.5114 250.028 42.7216 249.482 43.142C248.937 43.5625 248.553 44.0114 248.332 44.4886L246.423 43.8068C246.763 43.0114 247.218 42.392 247.786 41.9489C248.36 41.5 248.985 41.1875 249.661 41.0114C250.343 40.8295 251.013 40.7386 251.673 40.7386C252.093 40.7386 252.576 40.7898 253.121 40.892C253.673 40.9886 254.204 41.1903 254.715 41.4972C255.232 41.804 255.661 42.267 256.002 42.8864C256.343 43.5057 256.513 44.3352 256.513 45.375V54H254.502V52.2273H254.4C254.263 52.5114 254.036 52.8153 253.718 53.1392C253.4 53.4631 252.977 53.7386 252.448 53.9659C251.92 54.1932 251.275 54.3068 250.513 54.3068ZM250.82 52.5C251.616 52.5 252.286 52.3438 252.832 52.0312C253.383 51.7188 253.798 51.3153 254.076 50.821C254.36 50.3267 254.502 49.8068 254.502 49.2614V47.4205C254.417 47.5227 254.229 47.6165 253.94 47.7017C253.656 47.7812 253.326 47.8523 252.951 47.9148C252.582 47.9716 252.221 48.0227 251.869 48.0682C251.522 48.108 251.241 48.142 251.025 48.1705C250.502 48.2386 250.013 48.3494 249.559 48.5028C249.11 48.6506 248.746 48.875 248.468 49.1761C248.195 49.4716 248.059 49.875 248.059 50.3864C248.059 51.0852 248.317 51.6136 248.835 51.9716C249.357 52.3239 250.019 52.5 250.82 52.5ZM267.207 36.5455H269.73L275.662 51.0341H275.866L281.798 36.5455H284.321V54H282.344V40.7386H282.173L276.719 54H274.81L269.355 40.7386H269.185V54H267.207V36.5455ZM288.286 54V40.9091H290.298V54H288.286ZM289.309 38.7273C288.917 38.7273 288.579 38.5938 288.295 38.3267C288.016 38.0597 287.877 37.7386 287.877 37.3636C287.877 36.9886 288.016 36.6676 288.295 36.4006C288.579 36.1335 288.917 36 289.309 36C289.701 36 290.036 36.1335 290.315 36.4006C290.599 36.6676 290.741 36.9886 290.741 37.3636C290.741 37.7386 290.599 38.0597 290.315 38.3267C290.036 38.5938 289.701 38.7273 289.309 38.7273ZM295.993 46.125V54H293.982V40.9091H295.925V42.9545H296.095C296.402 42.2898 296.868 41.7557 297.493 41.3523C298.118 40.9432 298.925 40.7386 299.913 40.7386C300.8 40.7386 301.575 40.9205 302.24 41.2841C302.905 41.642 303.422 42.1875 303.791 42.9205C304.161 43.6477 304.345 44.5682 304.345 45.6818V54H302.334V45.8182C302.334 44.7898 302.067 43.9886 301.533 43.4148C300.999 42.8352 300.266 42.5455 299.334 42.5455C298.692 42.5455 298.118 42.6847 297.612 42.9631C297.112 43.2415 296.717 43.6477 296.428 44.1818C296.138 44.7159 295.993 45.3636 295.993 46.125ZM313.305 59.1818C312.333 59.1818 311.498 59.0568 310.799 58.8068C310.1 58.5625 309.518 58.2386 309.052 57.8352C308.592 57.4375 308.225 57.0114 307.952 56.5568L309.555 55.4318C309.737 55.6705 309.967 55.9432 310.245 56.25C310.523 56.5625 310.904 56.8324 311.387 57.0597C311.876 57.2926 312.515 57.4091 313.305 57.4091C314.362 57.4091 315.234 57.1534 315.921 56.642C316.609 56.1307 316.952 55.3295 316.952 54.2386V51.5795H316.782C316.634 51.8182 316.424 52.1136 316.151 52.4659C315.884 52.8125 315.498 53.1222 314.992 53.3949C314.492 53.6619 313.816 53.7955 312.964 53.7955C311.907 53.7955 310.958 53.5455 310.117 53.0455C309.282 52.5455 308.62 51.8182 308.131 50.8636C307.648 49.9091 307.407 48.75 307.407 47.3864C307.407 46.0455 307.643 44.8778 308.114 43.8835C308.586 42.8835 309.242 42.1108 310.083 41.5653C310.924 41.0142 311.896 40.7386 312.998 40.7386C313.85 40.7386 314.526 40.8807 315.026 41.1648C315.532 41.4432 315.918 41.7614 316.185 42.1193C316.458 42.4716 316.668 42.7614 316.816 42.9886H317.021V40.9091H318.964V54.375C318.964 55.5 318.708 56.4148 318.197 57.1193C317.691 57.8295 317.009 58.3494 316.151 58.679C315.299 59.0142 314.35 59.1818 313.305 59.1818ZM313.237 51.9886C314.043 51.9886 314.725 51.804 315.282 51.4347C315.839 51.0653 316.262 50.5341 316.552 49.8409C316.842 49.1477 316.987 48.3182 316.987 47.3523C316.987 46.4091 316.844 45.5767 316.56 44.8551C316.276 44.1335 315.856 43.5682 315.299 43.1591C314.742 42.75 314.055 42.5455 313.237 42.5455C312.384 42.5455 311.674 42.7614 311.106 43.1932C310.543 43.625 310.12 44.2045 309.836 44.9318C309.558 45.6591 309.418 46.4659 309.418 47.3523C309.418 48.2614 309.56 49.0653 309.844 49.7642C310.134 50.4574 310.56 51.0028 311.123 51.4006C311.691 51.7926 312.396 51.9886 313.237 51.9886ZM327.93 59.1818C326.958 59.1818 326.123 59.0568 325.424 58.8068C324.725 58.5625 324.143 58.2386 323.677 57.8352C323.217 57.4375 322.85 57.0114 322.577 56.5568L324.18 55.4318C324.362 55.6705 324.592 55.9432 324.87 56.25C325.148 56.5625 325.529 56.8324 326.012 57.0597C326.501 57.2926 327.14 57.4091 327.93 57.4091C328.987 57.4091 329.859 57.1534 330.546 56.642C331.234 56.1307 331.577 55.3295 331.577 54.2386V51.5795H331.407C331.259 51.8182 331.049 52.1136 330.776 52.4659C330.509 52.8125 330.123 53.1222 329.617 53.3949C329.117 53.6619 328.441 53.7955 327.589 53.7955C326.532 53.7955 325.583 53.5455 324.742 53.0455C323.907 52.5455 323.245 51.8182 322.756 50.8636C322.273 49.9091 322.032 48.75 322.032 47.3864C322.032 46.0455 322.268 44.8778 322.739 43.8835C323.211 42.8835 323.867 42.1108 324.708 41.5653C325.549 41.0142 326.521 40.7386 327.623 40.7386C328.475 40.7386 329.151 40.8807 329.651 41.1648C330.157 41.4432 330.543 41.7614 330.81 42.1193C331.083 42.4716 331.293 42.7614 331.441 42.9886H331.646V40.9091H333.589V54.375C333.589 55.5 333.333 56.4148 332.822 57.1193C332.316 57.8295 331.634 58.3494 330.776 58.679C329.924 59.0142 328.975 59.1818 327.93 59.1818ZM327.862 51.9886C328.668 51.9886 329.35 51.804 329.907 51.4347C330.464 51.0653 330.887 50.5341 331.177 49.8409C331.467 49.1477 331.612 48.3182 331.612 47.3523C331.612 46.4091 331.469 45.5767 331.185 44.8551C330.901 44.1335 330.481 43.5682 329.924 43.1591C329.367 42.75 328.68 42.5455 327.862 42.5455C327.009 42.5455 326.299 42.7614 325.731 43.1932C325.168 43.625 324.745 44.2045 324.461 44.9318C324.183 45.6591 324.043 46.4659 324.043 47.3523C324.043 48.2614 324.185 49.0653 324.469 49.7642C324.759 50.4574 325.185 51.0028 325.748 51.4006C326.316 51.7926 327.021 51.9886 327.862 51.9886ZM345.521 48.6477V40.9091H347.532V54H345.521V51.7841H345.384C345.077 52.4489 344.6 53.0142 343.952 53.4801C343.305 53.9403 342.487 54.1705 341.498 54.1705C340.68 54.1705 339.952 53.9915 339.316 53.6335C338.68 53.2699 338.18 52.7244 337.816 51.9972C337.452 51.2642 337.271 50.3409 337.271 49.2273V40.9091H339.282V49.0909C339.282 50.0455 339.549 50.8068 340.083 51.375C340.623 51.9432 341.31 52.2273 342.146 52.2273C342.646 52.2273 343.154 52.0994 343.671 51.8438C344.194 51.5881 344.631 51.196 344.984 50.6676C345.342 50.1392 345.521 49.4659 345.521 48.6477ZM360.352 36.5455V54H358.239V36.5455H360.352ZM366.329 46.125V54H364.317V40.9091H366.261V42.9545H366.431C366.738 42.2898 367.204 41.7557 367.829 41.3523C368.454 40.9432 369.261 40.7386 370.249 40.7386C371.136 40.7386 371.911 40.9205 372.576 41.2841C373.241 41.642 373.758 42.1875 374.127 42.9205C374.496 43.6477 374.681 44.5682 374.681 45.6818V54H372.67V45.8182C372.67 44.7898 372.403 43.9886 371.869 43.4148C371.335 42.8352 370.602 42.5455 369.67 42.5455C369.028 42.5455 368.454 42.6847 367.948 42.9631C367.448 43.2415 367.053 43.6477 366.763 44.1818C366.474 44.7159 366.329 45.3636 366.329 46.125ZM378.357 54V40.9091H380.368V54H378.357ZM379.379 38.7273C378.987 38.7273 378.649 38.5938 378.365 38.3267C378.087 38.0597 377.947 37.7386 377.947 37.3636C377.947 36.9886 378.087 36.6676 378.365 36.4006C378.649 36.1335 378.987 36 379.379 36C379.771 36 380.107 36.1335 380.385 36.4006C380.669 36.6676 380.811 36.9886 380.811 37.3636C380.811 37.7386 380.669 38.0597 380.385 38.3267C380.107 38.5938 379.771 38.7273 379.379 38.7273Z" fill="white"/>
<path d="M79.0682 144V74.1818H107.023C112.159 74.1818 116.443 74.9432 119.875 76.4659C123.307 77.9886 125.886 80.1023 127.614 82.8068C129.341 85.4886 130.205 88.5795 130.205 92.0795C130.205 94.8068 129.659 97.2045 128.568 99.2727C127.477 101.318 125.977 103 124.068 104.318C122.182 105.614 120.023 106.534 117.591 107.08V107.761C120.25 107.875 122.739 108.625 125.057 110.011C127.398 111.398 129.295 113.341 130.75 115.841C132.205 118.318 132.932 121.273 132.932 124.705C132.932 128.409 132.011 131.716 130.17 134.625C128.352 137.511 125.659 139.795 122.091 141.477C118.523 143.159 114.125 144 108.898 144H79.0682ZM93.8295 131.932H105.864C109.977 131.932 112.977 131.148 114.864 129.58C116.75 127.989 117.693 125.875 117.693 123.239C117.693 121.307 117.227 119.602 116.295 118.125C115.364 116.648 114.034 115.489 112.307 114.648C110.602 113.807 108.568 113.386 106.205 113.386H93.8295V131.932ZM93.8295 103.398H104.773C106.795 103.398 108.591 103.045 110.159 102.341C111.75 101.614 113 100.591 113.909 99.2727C114.841 97.9545 115.307 96.375 115.307 94.5341C115.307 92.0114 114.409 89.9773 112.614 88.4318C110.841 86.8864 108.318 86.1136 105.045 86.1136H93.8295V103.398ZM157.298 74.1818V144H142.537V74.1818H157.298ZM215.739 96.75C215.261 95.0909 214.591 93.625 213.727 92.3523C212.864 91.0568 211.807 89.9659 210.557 89.0795C209.33 88.1705 207.92 87.4773 206.33 87C204.761 86.5227 203.023 86.2841 201.114 86.2841C197.545 86.2841 194.409 87.1705 191.705 88.9432C189.023 90.7159 186.932 93.2955 185.432 96.6818C183.932 100.045 183.182 104.159 183.182 109.023C183.182 113.886 183.92 118.023 185.398 121.432C186.875 124.841 188.966 127.443 191.67 129.239C194.375 131.011 197.568 131.898 201.25 131.898C204.591 131.898 207.443 131.307 209.807 130.125C212.193 128.92 214.011 127.227 215.261 125.045C216.534 122.864 217.17 120.284 217.17 117.307L220.17 117.75H202.17V106.636H231.386V115.432C231.386 121.568 230.091 126.841 227.5 131.25C224.909 135.636 221.341 139.023 216.795 141.409C212.25 143.773 207.045 144.955 201.182 144.955C194.636 144.955 188.886 143.511 183.932 140.625C178.977 137.716 175.114 133.591 172.341 128.25C169.591 122.886 168.216 116.523 168.216 109.159C168.216 103.5 169.034 98.4545 170.67 94.0227C172.33 89.5682 174.648 85.7955 177.625 82.7045C180.602 79.6136 184.068 77.2614 188.023 75.6477C191.977 74.0341 196.261 73.2273 200.875 73.2273C204.83 73.2273 208.511 73.8068 211.92 74.9659C215.33 76.1023 218.352 77.7159 220.989 79.8068C223.648 81.8977 225.818 84.3864 227.5 87.2727C229.182 90.1364 230.261 93.2955 230.739 96.75H215.739ZM302.568 94.2614C302.295 91.5114 301.125 89.375 299.057 87.8523C296.989 86.3295 294.182 85.5682 290.636 85.5682C288.227 85.5682 286.193 85.9091 284.534 86.5909C282.875 87.25 281.602 88.1705 280.716 89.3523C279.852 90.5341 279.42 91.875 279.42 93.375C279.375 94.625 279.636 95.7159 280.205 96.6477C280.795 97.5795 281.602 98.3864 282.625 99.0682C283.648 99.7273 284.83 100.307 286.17 100.807C287.511 101.284 288.943 101.693 290.466 102.034L296.739 103.534C299.784 104.216 302.58 105.125 305.125 106.261C307.67 107.398 309.875 108.795 311.739 110.455C313.602 112.114 315.045 114.068 316.068 116.318C317.114 118.568 317.648 121.148 317.67 124.057C317.648 128.33 316.557 132.034 314.398 135.17C312.261 138.284 309.17 140.705 305.125 142.432C301.102 144.136 296.25 144.989 290.568 144.989C284.932 144.989 280.023 144.125 275.841 142.398C271.682 140.67 268.432 138.114 266.091 134.727C263.773 131.318 262.557 127.102 262.443 122.08H276.727C276.886 124.42 277.557 126.375 278.739 127.943C279.943 129.489 281.545 130.659 283.545 131.455C285.568 132.227 287.852 132.614 290.398 132.614C292.898 132.614 295.068 132.25 296.909 131.523C298.773 130.795 300.216 129.784 301.239 128.489C302.261 127.193 302.773 125.705 302.773 124.023C302.773 122.455 302.307 121.136 301.375 120.068C300.466 119 299.125 118.091 297.352 117.341C295.602 116.591 293.455 115.909 290.909 115.295L283.307 113.386C277.42 111.955 272.773 109.716 269.364 106.67C265.955 103.625 264.261 99.5227 264.284 94.3636C264.261 90.1364 265.386 86.4432 267.659 83.2841C269.955 80.125 273.102 77.6591 277.102 75.8864C281.102 74.1136 285.648 73.2273 290.739 73.2273C295.92 73.2273 300.443 74.1136 304.307 75.8864C308.193 77.6591 311.216 80.125 313.375 83.2841C315.534 86.4432 316.648 90.1023 316.716 94.2614H302.568ZM338.04 144H322.222L346.324 74.1818H365.347L389.415 144H373.597L356.108 90.1364H355.562L338.04 144ZM337.051 116.557H374.415V128.08H337.051V116.557ZM397.818 144V74.1818H412.58V131.83H442.511V144H397.818ZM452.287 144V74.1818H499.332V86.3523H467.048V102.989H496.912V115.159H467.048V131.83H499.469V144H452.287Z" fill="black"/>
<path d="M75.0682 139V69.1818H103.023C108.159 69.1818 112.443 69.9432 115.875 71.4659C119.307 72.9886 121.886 75.1023 123.614 77.8068C125.341 80.4886 126.205 83.5795 126.205 87.0795C126.205 89.8068 125.659 92.2045 124.568 94.2727C123.477 96.3182 121.977 98 120.068 99.3182C118.182 100.614 116.023 101.534 113.591 102.08V102.761C116.25 102.875 118.739 103.625 121.057 105.011C123.398 106.398 125.295 108.341 126.75 110.841C128.205 113.318 128.932 116.273 128.932 119.705C128.932 123.409 128.011 126.716 126.17 129.625C124.352 132.511 121.659 134.795 118.091 136.477C114.523 138.159 110.125 139 104.898 139H75.0682ZM89.8295 126.932H101.864C105.977 126.932 108.977 126.148 110.864 124.58C112.75 122.989 113.693 120.875 113.693 118.239C113.693 116.307 113.227 114.602 112.295 113.125C111.364 111.648 110.034 110.489 108.307 109.648C106.602 108.807 104.568 108.386 102.205 108.386H89.8295V126.932ZM89.8295 98.3977H100.773C102.795 98.3977 104.591 98.0455 106.159 97.3409C107.75 96.6136 109 95.5909 109.909 94.2727C110.841 92.9545 111.307 91.375 111.307 89.5341C111.307 87.0114 110.409 84.9773 108.614 83.4318C106.841 81.8864 104.318 81.1136 101.045 81.1136H89.8295V98.3977ZM153.298 69.1818V139H138.537V69.1818H153.298ZM211.739 91.75C211.261 90.0909 210.591 88.625 209.727 87.3523C208.864 86.0568 207.807 84.9659 206.557 84.0795C205.33 83.1705 203.92 82.4773 202.33 82C200.761 81.5227 199.023 81.2841 197.114 81.2841C193.545 81.2841 190.409 82.1705 187.705 83.9432C185.023 85.7159 182.932 88.2955 181.432 91.6818C179.932 95.0455 179.182 99.1591 179.182 104.023C179.182 108.886 179.92 113.023 181.398 116.432C182.875 119.841 184.966 122.443 187.67 124.239C190.375 126.011 193.568 126.898 197.25 126.898C200.591 126.898 203.443 126.307 205.807 125.125C208.193 123.92 210.011 122.227 211.261 120.045C212.534 117.864 213.17 115.284 213.17 112.307L216.17 112.75H198.17V101.636H227.386V110.432C227.386 116.568 226.091 121.841 223.5 126.25C220.909 130.636 217.341 134.023 212.795 136.409C208.25 138.773 203.045 139.955 197.182 139.955C190.636 139.955 184.886 138.511 179.932 135.625C174.977 132.716 171.114 128.591 168.341 123.25C165.591 117.886 164.216 111.523 164.216 104.159C164.216 98.5 165.034 93.4545 166.67 89.0227C168.33 84.5682 170.648 80.7955 173.625 77.7045C176.602 74.6136 180.068 72.2614 184.023 70.6477C187.977 69.0341 192.261 68.2273 196.875 68.2273C200.83 68.2273 204.511 68.8068 207.92 69.9659C211.33 71.1023 214.352 72.7159 216.989 74.8068C219.648 76.8977 221.818 79.3864 223.5 82.2727C225.182 85.1364 226.261 88.2955 226.739 91.75H211.739ZM298.568 89.2614C298.295 86.5114 297.125 84.375 295.057 82.8523C292.989 81.3295 290.182 80.5682 286.636 80.5682C284.227 80.5682 282.193 80.9091 280.534 81.5909C278.875 82.25 277.602 83.1705 276.716 84.3523C275.852 85.5341 275.42 86.875 275.42 88.375C275.375 89.625 275.636 90.7159 276.205 91.6477C276.795 92.5795 277.602 93.3864 278.625 94.0682C279.648 94.7273 280.83 95.3068 282.17 95.8068C283.511 96.2841 284.943 96.6932 286.466 97.0341L292.739 98.5341C295.784 99.2159 298.58 100.125 301.125 101.261C303.67 102.398 305.875 103.795 307.739 105.455C309.602 107.114 311.045 109.068 312.068 111.318C313.114 113.568 313.648 116.148 313.67 119.057C313.648 123.33 312.557 127.034 310.398 130.17C308.261 133.284 305.17 135.705 301.125 137.432C297.102 139.136 292.25 139.989 286.568 139.989C280.932 139.989 276.023 139.125 271.841 137.398C267.682 135.67 264.432 133.114 262.091 129.727C259.773 126.318 258.557 122.102 258.443 117.08H272.727C272.886 119.42 273.557 121.375 274.739 122.943C275.943 124.489 277.545 125.659 279.545 126.455C281.568 127.227 283.852 127.614 286.398 127.614C288.898 127.614 291.068 127.25 292.909 126.523C294.773 125.795 296.216 124.784 297.239 123.489C298.261 122.193 298.773 120.705 298.773 119.023C298.773 117.455 298.307 116.136 297.375 115.068C296.466 114 295.125 113.091 293.352 112.341C291.602 111.591 289.455 110.909 286.909 110.295L279.307 108.386C273.42 106.955 268.773 104.716 265.364 101.67C261.955 98.625 260.261 94.5227 260.284 89.3636C260.261 85.1364 261.386 81.4432 263.659 78.2841C265.955 75.125 269.102 72.6591 273.102 70.8864C277.102 69.1136 281.648 68.2273 286.739 68.2273C291.92 68.2273 296.443 69.1136 300.307 70.8864C304.193 72.6591 307.216 75.125 309.375 78.2841C311.534 81.4432 312.648 85.1023 312.716 89.2614H298.568ZM334.04 139H318.222L342.324 69.1818H361.347L385.415 139H369.597L352.108 85.1364H351.562L334.04 139ZM333.051 111.557H370.415V123.08H333.051V111.557ZM393.818 139V69.1818H408.58V126.83H438.511V139H393.818ZM448.287 139V69.1818H495.332V81.3523H463.048V97.9886H492.912V110.159H463.048V126.83H495.469V139H448.287Z" fill="white"/>
</svg>
