<svg width="569" height="195" viewBox="0 0 569 195" fill="none" xmlns="http://www.w3.org/2000/svg">
<rect width="569" height="195" fill="black"/>
<path d="M189.114 63V45.5455H191.227V53.3182H200.534V45.5455H202.648V63H200.534V55.1932H191.227V63H189.114ZM210.459 63.3068C209.629 63.3068 208.876 63.1506 208.2 62.8381C207.524 62.5199 206.987 62.0625 206.589 61.4659C206.192 60.8636 205.993 60.1364 205.993 59.2841C205.993 58.5341 206.141 57.9261 206.436 57.4602C206.732 56.9886 207.126 56.6193 207.621 56.3523C208.115 56.0852 208.661 55.8864 209.257 55.7557C209.859 55.6193 210.464 55.5114 211.072 55.4318C211.868 55.3295 212.513 55.2528 213.007 55.2017C213.507 55.1449 213.871 55.0511 214.098 54.9205C214.331 54.7898 214.447 54.5625 214.447 54.2386V54.1705C214.447 53.3295 214.217 52.6761 213.757 52.2102C213.303 51.7443 212.612 51.5114 211.686 51.5114C210.726 51.5114 209.973 51.7216 209.428 52.142C208.882 52.5625 208.499 53.0114 208.277 53.4886L206.368 52.8068C206.709 52.0114 207.163 51.392 207.732 50.9489C208.305 50.5 208.93 50.1875 209.607 50.0114C210.288 49.8295 210.959 49.7386 211.618 49.7386C212.038 49.7386 212.521 49.7898 213.067 49.892C213.618 49.9886 214.149 50.1903 214.661 50.4972C215.178 50.804 215.607 51.267 215.947 51.8864C216.288 52.5057 216.459 53.3352 216.459 54.375V63H214.447V61.2273H214.345C214.209 61.5114 213.982 61.8153 213.663 62.1392C213.345 62.4631 212.922 62.7386 212.393 62.9659C211.865 63.1932 211.22 63.3068 210.459 63.3068ZM210.766 61.5C211.561 61.5 212.232 61.3438 212.777 61.0312C213.328 60.7188 213.743 60.3153 214.021 59.821C214.305 59.3267 214.447 58.8068 214.447 58.2614V56.4205C214.362 56.5227 214.175 56.6165 213.885 56.7017C213.601 56.7812 213.271 56.8523 212.896 56.9148C212.527 56.9716 212.166 57.0227 211.814 57.0682C211.467 57.108 211.186 57.142 210.97 57.1705C210.447 57.2386 209.959 57.3494 209.504 57.5028C209.055 57.6506 208.692 57.875 208.413 58.1761C208.141 58.4716 208.004 58.875 208.004 59.3864C208.004 60.0852 208.263 60.6136 208.78 60.9716C209.303 61.3239 209.964 61.5 210.766 61.5ZM222.141 55.125V63H220.13V49.9091H222.073V51.9545H222.244C222.55 51.2898 223.016 50.7557 223.641 50.3523C224.266 49.9432 225.073 49.7386 226.062 49.7386C226.948 49.7386 227.724 49.9205 228.388 50.2841C229.053 50.642 229.57 51.1875 229.94 51.9205C230.309 52.6477 230.494 53.5682 230.494 54.6818V63H228.482V54.8182C228.482 53.7898 228.215 52.9886 227.681 52.4148C227.147 51.8352 226.414 51.5455 225.482 51.5455C224.84 51.5455 224.266 51.6847 223.761 51.9631C223.261 52.2415 222.866 52.6477 222.576 53.1818C222.286 53.7159 222.141 54.3636 222.141 55.125ZM234.996 67.9091C234.655 67.9091 234.351 67.8807 234.084 67.8239C233.817 67.7727 233.632 67.7216 233.53 67.6705L234.041 65.8977C234.53 66.0227 234.962 66.0682 235.337 66.0341C235.712 66 236.044 65.8324 236.334 65.5312C236.629 65.2358 236.899 64.7557 237.143 64.0909L237.518 63.0682L232.678 49.9091H234.859L238.473 60.3409H238.609L242.223 49.9091H244.405L238.848 64.9091C238.598 65.5852 238.288 66.1449 237.919 66.5881C237.55 67.0369 237.121 67.3693 236.632 67.5852C236.149 67.8011 235.604 67.9091 234.996 67.9091ZM250.513 63.3068C249.684 63.3068 248.931 63.1506 248.255 62.8381C247.579 62.5199 247.042 62.0625 246.644 61.4659C246.246 60.8636 246.048 60.1364 246.048 59.2841C246.048 58.5341 246.195 57.9261 246.491 57.4602C246.786 56.9886 247.181 56.6193 247.675 56.3523C248.17 56.0852 248.715 55.8864 249.312 55.7557C249.914 55.6193 250.519 55.5114 251.127 55.4318C251.923 55.3295 252.567 55.2528 253.062 55.2017C253.562 55.1449 253.925 55.0511 254.153 54.9205C254.386 54.7898 254.502 54.5625 254.502 54.2386V54.1705C254.502 53.3295 254.272 52.6761 253.812 52.2102C253.357 51.7443 252.667 51.5114 251.741 51.5114C250.781 51.5114 250.028 51.7216 249.482 52.142C248.937 52.5625 248.553 53.0114 248.332 53.4886L246.423 52.8068C246.763 52.0114 247.218 51.392 247.786 50.9489C248.36 50.5 248.985 50.1875 249.661 50.0114C250.343 49.8295 251.013 49.7386 251.673 49.7386C252.093 49.7386 252.576 49.7898 253.121 49.892C253.673 49.9886 254.204 50.1903 254.715 50.4972C255.232 50.804 255.661 51.267 256.002 51.8864C256.343 52.5057 256.513 53.3352 256.513 54.375V63H254.502V61.2273H254.4C254.263 61.5114 254.036 61.8153 253.718 62.1392C253.4 62.4631 252.977 62.7386 252.448 62.9659C251.92 63.1932 251.275 63.3068 250.513 63.3068ZM250.82 61.5C251.616 61.5 252.286 61.3438 252.832 61.0312C253.383 60.7188 253.798 60.3153 254.076 59.821C254.36 59.3267 254.502 58.8068 254.502 58.2614V56.4205C254.417 56.5227 254.229 56.6165 253.94 56.7017C253.656 56.7812 253.326 56.8523 252.951 56.9148C252.582 56.9716 252.221 57.0227 251.869 57.0682C251.522 57.108 251.241 57.142 251.025 57.1705C250.502 57.2386 250.013 57.3494 249.559 57.5028C249.11 57.6506 248.746 57.875 248.468 58.1761C248.195 58.4716 248.059 58.875 248.059 59.3864C248.059 60.0852 248.317 60.6136 248.835 60.9716C249.357 61.3239 250.019 61.5 250.82 61.5ZM267.207 45.5455H269.73L275.662 60.0341H275.866L281.798 45.5455H284.321V63H282.344V49.7386H282.173L276.719 63H274.81L269.355 49.7386H269.185V63H267.207V45.5455ZM288.286 63V49.9091H290.298V63H288.286ZM289.309 47.7273C288.917 47.7273 288.579 47.5938 288.295 47.3267C288.016 47.0597 287.877 46.7386 287.877 46.3636C287.877 45.9886 288.016 45.6676 288.295 45.4006C288.579 45.1335 288.917 45 289.309 45C289.701 45 290.036 45.1335 290.315 45.4006C290.599 45.6676 290.741 45.9886 290.741 46.3636C290.741 46.7386 290.599 47.0597 290.315 47.3267C290.036 47.5938 289.701 47.7273 289.309 47.7273ZM295.993 55.125V63H293.982V49.9091H295.925V51.9545H296.095C296.402 51.2898 296.868 50.7557 297.493 50.3523C298.118 49.9432 298.925 49.7386 299.913 49.7386C300.8 49.7386 301.575 49.9205 302.24 50.2841C302.905 50.642 303.422 51.1875 303.791 51.9205C304.161 52.6477 304.345 53.5682 304.345 54.6818V63H302.334V54.8182C302.334 53.7898 302.067 52.9886 301.533 52.4148C300.999 51.8352 300.266 51.5455 299.334 51.5455C298.692 51.5455 298.118 51.6847 297.612 51.9631C297.112 52.2415 296.717 52.6477 296.428 53.1818C296.138 53.7159 295.993 54.3636 295.993 55.125ZM313.305 68.1818C312.333 68.1818 311.498 68.0568 310.799 67.8068C310.1 67.5625 309.518 67.2386 309.052 66.8352C308.592 66.4375 308.225 66.0114 307.952 65.5568L309.555 64.4318C309.737 64.6705 309.967 64.9432 310.245 65.25C310.523 65.5625 310.904 65.8324 311.387 66.0597C311.876 66.2926 312.515 66.4091 313.305 66.4091C314.362 66.4091 315.234 66.1534 315.921 65.642C316.609 65.1307 316.952 64.3295 316.952 63.2386V60.5795H316.782C316.634 60.8182 316.424 61.1136 316.151 61.4659C315.884 61.8125 315.498 62.1222 314.992 62.3949C314.492 62.6619 313.816 62.7955 312.964 62.7955C311.907 62.7955 310.958 62.5455 310.117 62.0455C309.282 61.5455 308.62 60.8182 308.131 59.8636C307.648 58.9091 307.407 57.75 307.407 56.3864C307.407 55.0455 307.643 53.8778 308.114 52.8835C308.586 51.8835 309.242 51.1108 310.083 50.5653C310.924 50.0142 311.896 49.7386 312.998 49.7386C313.85 49.7386 314.526 49.8807 315.026 50.1648C315.532 50.4432 315.918 50.7614 316.185 51.1193C316.458 51.4716 316.668 51.7614 316.816 51.9886H317.021V49.9091H318.964V63.375C318.964 64.5 318.708 65.4148 318.197 66.1193C317.691 66.8295 317.009 67.3494 316.151 67.679C315.299 68.0142 314.35 68.1818 313.305 68.1818ZM313.237 60.9886C314.043 60.9886 314.725 60.804 315.282 60.4347C315.839 60.0653 316.262 59.5341 316.552 58.8409C316.842 58.1477 316.987 57.3182 316.987 56.3523C316.987 55.4091 316.844 54.5767 316.56 53.8551C316.276 53.1335 315.856 52.5682 315.299 52.1591C314.742 51.75 314.055 51.5455 313.237 51.5455C312.384 51.5455 311.674 51.7614 311.106 52.1932C310.543 52.625 310.12 53.2045 309.836 53.9318C309.558 54.6591 309.418 55.4659 309.418 56.3523C309.418 57.2614 309.56 58.0653 309.844 58.7642C310.134 59.4574 310.56 60.0028 311.123 60.4006C311.691 60.7926 312.396 60.9886 313.237 60.9886ZM327.93 68.1818C326.958 68.1818 326.123 68.0568 325.424 67.8068C324.725 67.5625 324.143 67.2386 323.677 66.8352C323.217 66.4375 322.85 66.0114 322.577 65.5568L324.18 64.4318C324.362 64.6705 324.592 64.9432 324.87 65.25C325.148 65.5625 325.529 65.8324 326.012 66.0597C326.501 66.2926 327.14 66.4091 327.93 66.4091C328.987 66.4091 329.859 66.1534 330.546 65.642C331.234 65.1307 331.577 64.3295 331.577 63.2386V60.5795H331.407C331.259 60.8182 331.049 61.1136 330.776 61.4659C330.509 61.8125 330.123 62.1222 329.617 62.3949C329.117 62.6619 328.441 62.7955 327.589 62.7955C326.532 62.7955 325.583 62.5455 324.742 62.0455C323.907 61.5455 323.245 60.8182 322.756 59.8636C322.273 58.9091 322.032 57.75 322.032 56.3864C322.032 55.0455 322.268 53.8778 322.739 52.8835C323.211 51.8835 323.867 51.1108 324.708 50.5653C325.549 50.0142 326.521 49.7386 327.623 49.7386C328.475 49.7386 329.151 49.8807 329.651 50.1648C330.157 50.4432 330.543 50.7614 330.81 51.1193C331.083 51.4716 331.293 51.7614 331.441 51.9886H331.646V49.9091H333.589V63.375C333.589 64.5 333.333 65.4148 332.822 66.1193C332.316 66.8295 331.634 67.3494 330.776 67.679C329.924 68.0142 328.975 68.1818 327.93 68.1818ZM327.862 60.9886C328.668 60.9886 329.35 60.804 329.907 60.4347C330.464 60.0653 330.887 59.5341 331.177 58.8409C331.467 58.1477 331.612 57.3182 331.612 56.3523C331.612 55.4091 331.469 54.5767 331.185 53.8551C330.901 53.1335 330.481 52.5682 329.924 52.1591C329.367 51.75 328.68 51.5455 327.862 51.5455C327.009 51.5455 326.299 51.7614 325.731 52.1932C325.168 52.625 324.745 53.2045 324.461 53.9318C324.183 54.6591 324.043 55.4659 324.043 56.3523C324.043 57.2614 324.185 58.0653 324.469 58.7642C324.759 59.4574 325.185 60.0028 325.748 60.4006C326.316 60.7926 327.021 60.9886 327.862 60.9886ZM345.521 57.6477V49.9091H347.532V63H345.521V60.7841H345.384C345.077 61.4489 344.6 62.0142 343.952 62.4801C343.305 62.9403 342.487 63.1705 341.498 63.1705C340.68 63.1705 339.952 62.9915 339.316 62.6335C338.68 62.2699 338.18 61.7244 337.816 60.9972C337.452 60.2642 337.271 59.3409 337.271 58.2273V49.9091H339.282V58.0909C339.282 59.0455 339.549 59.8068 340.083 60.375C340.623 60.9432 341.31 61.2273 342.146 61.2273C342.646 61.2273 343.154 61.0994 343.671 60.8438C344.194 60.5881 344.631 60.196 344.984 59.6676C345.342 59.1392 345.521 58.4659 345.521 57.6477ZM360.352 45.5455V63H358.239V45.5455H360.352ZM366.329 55.125V63H364.317V49.9091H366.261V51.9545H366.431C366.738 51.2898 367.204 50.7557 367.829 50.3523C368.454 49.9432 369.261 49.7386 370.249 49.7386C371.136 49.7386 371.911 49.9205 372.576 50.2841C373.241 50.642 373.758 51.1875 374.127 51.9205C374.496 52.6477 374.681 53.5682 374.681 54.6818V63H372.67V54.8182C372.67 53.7898 372.403 52.9886 371.869 52.4148C371.335 51.8352 370.602 51.5455 369.67 51.5455C369.028 51.5455 368.454 51.6847 367.948 51.9631C367.448 52.2415 367.053 52.6477 366.763 53.1818C366.474 53.7159 366.329 54.3636 366.329 55.125ZM378.357 63V49.9091H380.368V63H378.357ZM379.379 47.7273C378.987 47.7273 378.649 47.5938 378.365 47.3267C378.087 47.0597 377.947 46.7386 377.947 46.3636C377.947 45.9886 378.087 45.6676 378.365 45.4006C378.649 45.1335 378.987 45 379.379 45C379.771 45 380.107 45.1335 380.385 45.4006C380.669 45.6676 380.811 45.9886 380.811 46.3636C380.811 46.7386 380.669 47.0597 380.385 47.3267C380.107 47.5938 379.771 47.7273 379.379 47.7273Z" fill="white"/>
<path d="M79.0682 153V83.1818H107.023C112.159 83.1818 116.443 83.9432 119.875 85.4659C123.307 86.9886 125.886 89.1023 127.614 91.8068C129.341 94.4886 130.205 97.5795 130.205 101.08C130.205 103.807 129.659 106.205 128.568 108.273C127.477 110.318 125.977 112 124.068 113.318C122.182 114.614 120.023 115.534 117.591 116.08V116.761C120.25 116.875 122.739 117.625 125.057 119.011C127.398 120.398 129.295 122.341 130.75 124.841C132.205 127.318 132.932 130.273 132.932 133.705C132.932 137.409 132.011 140.716 130.17 143.625C128.352 146.511 125.659 148.795 122.091 150.477C118.523 152.159 114.125 153 108.898 153H79.0682ZM93.8295 140.932H105.864C109.977 140.932 112.977 140.148 114.864 138.58C116.75 136.989 117.693 134.875 117.693 132.239C117.693 130.307 117.227 128.602 116.295 127.125C115.364 125.648 114.034 124.489 112.307 123.648C110.602 122.807 108.568 122.386 106.205 122.386H93.8295V140.932ZM93.8295 112.398H104.773C106.795 112.398 108.591 112.045 110.159 111.341C111.75 110.614 113 109.591 113.909 108.273C114.841 106.955 115.307 105.375 115.307 103.534C115.307 101.011 114.409 98.9773 112.614 97.4318C110.841 95.8864 108.318 95.1136 105.045 95.1136H93.8295V112.398ZM157.298 83.1818V153H142.537V83.1818H157.298ZM215.739 105.75C215.261 104.091 214.591 102.625 213.727 101.352C212.864 100.057 211.807 98.9659 210.557 98.0795C209.33 97.1705 207.92 96.4773 206.33 96C204.761 95.5227 203.023 95.2841 201.114 95.2841C197.545 95.2841 194.409 96.1705 191.705 97.9432C189.023 99.7159 186.932 102.295 185.432 105.682C183.932 109.045 183.182 113.159 183.182 118.023C183.182 122.886 183.92 127.023 185.398 130.432C186.875 133.841 188.966 136.443 191.67 138.239C194.375 140.011 197.568 140.898 201.25 140.898C204.591 140.898 207.443 140.307 209.807 139.125C212.193 137.92 214.011 136.227 215.261 134.045C216.534 131.864 217.17 129.284 217.17 126.307L220.17 126.75H202.17V115.636H231.386V124.432C231.386 130.568 230.091 135.841 227.5 140.25C224.909 144.636 221.341 148.023 216.795 150.409C212.25 152.773 207.045 153.955 201.182 153.955C194.636 153.955 188.886 152.511 183.932 149.625C178.977 146.716 175.114 142.591 172.341 137.25C169.591 131.886 168.216 125.523 168.216 118.159C168.216 112.5 169.034 107.455 170.67 103.023C172.33 98.5682 174.648 94.7955 177.625 91.7045C180.602 88.6136 184.068 86.2614 188.023 84.6477C191.977 83.0341 196.261 82.2273 200.875 82.2273C204.83 82.2273 208.511 82.8068 211.92 83.9659C215.33 85.1023 218.352 86.7159 220.989 88.8068C223.648 90.8977 225.818 93.3864 227.5 96.2727C229.182 99.1364 230.261 102.295 230.739 105.75H215.739ZM302.568 103.261C302.295 100.511 301.125 98.375 299.057 96.8523C296.989 95.3295 294.182 94.5682 290.636 94.5682C288.227 94.5682 286.193 94.9091 284.534 95.5909C282.875 96.25 281.602 97.1705 280.716 98.3523C279.852 99.5341 279.42 100.875 279.42 102.375C279.375 103.625 279.636 104.716 280.205 105.648C280.795 106.58 281.602 107.386 282.625 108.068C283.648 108.727 284.83 109.307 286.17 109.807C287.511 110.284 288.943 110.693 290.466 111.034L296.739 112.534C299.784 113.216 302.58 114.125 305.125 115.261C307.67 116.398 309.875 117.795 311.739 119.455C313.602 121.114 315.045 123.068 316.068 125.318C317.114 127.568 317.648 130.148 317.67 133.057C317.648 137.33 316.557 141.034 314.398 144.17C312.261 147.284 309.17 149.705 305.125 151.432C301.102 153.136 296.25 153.989 290.568 153.989C284.932 153.989 280.023 153.125 275.841 151.398C271.682 149.67 268.432 147.114 266.091 143.727C263.773 140.318 262.557 136.102 262.443 131.08H276.727C276.886 133.42 277.557 135.375 278.739 136.943C279.943 138.489 281.545 139.659 283.545 140.455C285.568 141.227 287.852 141.614 290.398 141.614C292.898 141.614 295.068 141.25 296.909 140.523C298.773 139.795 300.216 138.784 301.239 137.489C302.261 136.193 302.773 134.705 302.773 133.023C302.773 131.455 302.307 130.136 301.375 129.068C300.466 128 299.125 127.091 297.352 126.341C295.602 125.591 293.455 124.909 290.909 124.295L283.307 122.386C277.42 120.955 272.773 118.716 269.364 115.67C265.955 112.625 264.261 108.523 264.284 103.364C264.261 99.1364 265.386 95.4432 267.659 92.2841C269.955 89.125 273.102 86.6591 277.102 84.8864C281.102 83.1136 285.648 82.2273 290.739 82.2273C295.92 82.2273 300.443 83.1136 304.307 84.8864C308.193 86.6591 311.216 89.125 313.375 92.2841C315.534 95.4432 316.648 99.1023 316.716 103.261H302.568ZM338.04 153H322.222L346.324 83.1818H365.347L389.415 153H373.597L356.108 99.1364H355.562L338.04 153ZM337.051 125.557H374.415V137.08H337.051V125.557ZM397.818 153V83.1818H412.58V140.83H442.511V153H397.818ZM452.287 153V83.1818H499.332V95.3523H467.048V111.989H496.912V124.159H467.048V140.83H499.469V153H452.287Z" fill="#D10B05"/>
<path d="M75.0682 148V78.1818H103.023C108.159 78.1818 112.443 78.9432 115.875 80.4659C119.307 81.9886 121.886 84.1023 123.614 86.8068C125.341 89.4886 126.205 92.5795 126.205 96.0795C126.205 98.8068 125.659 101.205 124.568 103.273C123.477 105.318 121.977 107 120.068 108.318C118.182 109.614 116.023 110.534 113.591 111.08V111.761C116.25 111.875 118.739 112.625 121.057 114.011C123.398 115.398 125.295 117.341 126.75 119.841C128.205 122.318 128.932 125.273 128.932 128.705C128.932 132.409 128.011 135.716 126.17 138.625C124.352 141.511 121.659 143.795 118.091 145.477C114.523 147.159 110.125 148 104.898 148H75.0682ZM89.8295 135.932H101.864C105.977 135.932 108.977 135.148 110.864 133.58C112.75 131.989 113.693 129.875 113.693 127.239C113.693 125.307 113.227 123.602 112.295 122.125C111.364 120.648 110.034 119.489 108.307 118.648C106.602 117.807 104.568 117.386 102.205 117.386H89.8295V135.932ZM89.8295 107.398H100.773C102.795 107.398 104.591 107.045 106.159 106.341C107.75 105.614 109 104.591 109.909 103.273C110.841 101.955 111.307 100.375 111.307 98.5341C111.307 96.0114 110.409 93.9773 108.614 92.4318C106.841 90.8864 104.318 90.1136 101.045 90.1136H89.8295V107.398ZM153.298 78.1818V148H138.537V78.1818H153.298ZM211.739 100.75C211.261 99.0909 210.591 97.625 209.727 96.3523C208.864 95.0568 207.807 93.9659 206.557 93.0795C205.33 92.1705 203.92 91.4773 202.33 91C200.761 90.5227 199.023 90.2841 197.114 90.2841C193.545 90.2841 190.409 91.1705 187.705 92.9432C185.023 94.7159 182.932 97.2955 181.432 100.682C179.932 104.045 179.182 108.159 179.182 113.023C179.182 117.886 179.92 122.023 181.398 125.432C182.875 128.841 184.966 131.443 187.67 133.239C190.375 135.011 193.568 135.898 197.25 135.898C200.591 135.898 203.443 135.307 205.807 134.125C208.193 132.92 210.011 131.227 211.261 129.045C212.534 126.864 213.17 124.284 213.17 121.307L216.17 121.75H198.17V110.636H227.386V119.432C227.386 125.568 226.091 130.841 223.5 135.25C220.909 139.636 217.341 143.023 212.795 145.409C208.25 147.773 203.045 148.955 197.182 148.955C190.636 148.955 184.886 147.511 179.932 144.625C174.977 141.716 171.114 137.591 168.341 132.25C165.591 126.886 164.216 120.523 164.216 113.159C164.216 107.5 165.034 102.455 166.67 98.0227C168.33 93.5682 170.648 89.7955 173.625 86.7045C176.602 83.6136 180.068 81.2614 184.023 79.6477C187.977 78.0341 192.261 77.2273 196.875 77.2273C200.83 77.2273 204.511 77.8068 207.92 78.9659C211.33 80.1023 214.352 81.7159 216.989 83.8068C219.648 85.8977 221.818 88.3864 223.5 91.2727C225.182 94.1364 226.261 97.2955 226.739 100.75H211.739ZM298.568 98.2614C298.295 95.5114 297.125 93.375 295.057 91.8523C292.989 90.3295 290.182 89.5682 286.636 89.5682C284.227 89.5682 282.193 89.9091 280.534 90.5909C278.875 91.25 277.602 92.1705 276.716 93.3523C275.852 94.5341 275.42 95.875 275.42 97.375C275.375 98.625 275.636 99.7159 276.205 100.648C276.795 101.58 277.602 102.386 278.625 103.068C279.648 103.727 280.83 104.307 282.17 104.807C283.511 105.284 284.943 105.693 286.466 106.034L292.739 107.534C295.784 108.216 298.58 109.125 301.125 110.261C303.67 111.398 305.875 112.795 307.739 114.455C309.602 116.114 311.045 118.068 312.068 120.318C313.114 122.568 313.648 125.148 313.67 128.057C313.648 132.33 312.557 136.034 310.398 139.17C308.261 142.284 305.17 144.705 301.125 146.432C297.102 148.136 292.25 148.989 286.568 148.989C280.932 148.989 276.023 148.125 271.841 146.398C267.682 144.67 264.432 142.114 262.091 138.727C259.773 135.318 258.557 131.102 258.443 126.08H272.727C272.886 128.42 273.557 130.375 274.739 131.943C275.943 133.489 277.545 134.659 279.545 135.455C281.568 136.227 283.852 136.614 286.398 136.614C288.898 136.614 291.068 136.25 292.909 135.523C294.773 134.795 296.216 133.784 297.239 132.489C298.261 131.193 298.773 129.705 298.773 128.023C298.773 126.455 298.307 125.136 297.375 124.068C296.466 123 295.125 122.091 293.352 121.341C291.602 120.591 289.455 119.909 286.909 119.295L279.307 117.386C273.42 115.955 268.773 113.716 265.364 110.67C261.955 107.625 260.261 103.523 260.284 98.3636C260.261 94.1364 261.386 90.4432 263.659 87.2841C265.955 84.125 269.102 81.6591 273.102 79.8864C277.102 78.1136 281.648 77.2273 286.739 77.2273C291.92 77.2273 296.443 78.1136 300.307 79.8864C304.193 81.6591 307.216 84.125 309.375 87.2841C311.534 90.4432 312.648 94.1023 312.716 98.2614H298.568ZM334.04 148H318.222L342.324 78.1818H361.347L385.415 148H369.597L352.108 94.1364H351.562L334.04 148ZM333.051 120.557H370.415V132.08H333.051V120.557ZM393.818 148V78.1818H408.58V135.83H438.511V148H393.818ZM448.287 148V78.1818H495.332V90.3523H463.048V106.989H492.912V119.159H463.048V135.83H495.469V148H448.287Z" fill="white"/>
</svg>
